<svg height="512" viewBox="0 0 64 64" width="512" xmlns="http://www.w3.org/2000/svg"><g id="Layer_18" data-name="Layer 18"><path d="m38.59 23h-7.18l-6 6h7.18z"/><path d="m26.5 47a1.5 1.5 0 0 0 -1.5 1.5v3a1.5 1.5 0 0 0 3 0v-3a1.5 1.5 0 0 0 -1.5-1.5z"/><path d="m3 27v1.59l1.59-1.59z"/><path d="m52.62 10.72 4.85-7.17-7.03 1.22-4.85 7.16z"/><path d="m9 15h-6v10h6zm-2 8h-2v-2h2zm0-3.91h-2v-2h2z"/><path d="m23.3 15.78 4.97-7.19-7.05 1.22-4.97 7.18z"/><path d="m7.94 13 .71-1.02-5.49.95.01.07z"/><path d="m33.11 14.08 4.97-7.18-7.05 1.22-4.97 7.18z"/><path d="m11 14v3.9l2.49-.43 5-7.19-7 1.22-1.08 1.57a1 1 0 0 1 .59.93z"/><path d="m5.41 29h7.18l6-6h-7.59v3a1 1 0 0 1 -1 1h-2.59z"/><path d="m60.84 9.3-.98-5.7-4.5 6.65z"/><path d="m3 35h58v2h-58z"/><path d="m3 61h58v-22h-58zm6-19a1 1 0 0 1 1-1h44a1 1 0 0 1 1 1v16a1 1 0 0 1 -1 1h-44a1 1 0 0 1 -1-1z"/><path d="m42.86 12.4 4.85-7.16-6.87 1.18-4.97 7.19z"/><path d="m55.41 29h5.59v-5.59z"/><path d="m3 31h58v2h-58z"/><path d="m48.59 23h-7.18l-6 6h7.18z"/><path d="m15.41 29h7.18l6-6h-7.18z"/><path d="m58.59 23h-7.18l-6 6h7.18z"/><path d="m53 43h-42v14h42zm-32 12h-2v-5.39l-1.14 1.9a1 1 0 0 1 -1.72 0l-1.14-1.9v5.39h-2v-9a1 1 0 0 1 1.86-.51l2.14 3.57 2.14-3.57a1 1 0 0 1 1.86.51zm9-3.5a3.5 3.5 0 0 1 -7 0v-3a3.5 3.5 0 0 1 7 0zm8-.5a1 1 0 0 1 -.17.55l-2 3a1 1 0 0 1 -1.66 0l-2-3a1 1 0 0 1 -.17-.55v-6h2v5.7l1 1.5 1-1.5v-5.7h2zm4 4h-2v-10h2zm8-8h-4v2h4v2h-4v2h4v2h-5a1 1 0 0 1 -1-1v-8a1 1 0 0 1 1-1h5z"/></g></svg>